<mxfile host="app.diagrams.net" modified="2023-11-02T01:23:16.052Z" agent="Mozilla/5.0 (Macintosh; Intel Mac OS X 10_15_7) AppleWebKit/605.1.15 (KHTML, like Gecko) Version/17.0 Safari/605.1.15" etag="S_yjEFfUYzGvdrKr8uMc" version="22.0.8" type="github">
  <diagram name="Page-1" id="pY-ZFwiOUdIzHV5ewGn6">
    <mxGraphModel dx="1435" dy="2180" grid="1" gridSize="10" guides="1" tooltips="1" connect="1" arrows="1" fold="1" page="1" pageScale="1" pageWidth="850" pageHeight="1100" math="0" shadow="0">
      <root>
        <mxCell id="0" />
        <mxCell id="1" parent="0" />
        <mxCell id="7C8xcJrHrY4QOSxnhiZb-1" value="User" style="swimlane;fontStyle=1;align=center;verticalAlign=top;childLayout=stackLayout;horizontal=1;startSize=26;horizontalStack=0;resizeParent=1;resizeParentMax=0;resizeLast=0;collapsible=1;marginBottom=0;whiteSpace=wrap;html=1;" parent="1" vertex="1">
          <mxGeometry x="180" y="175" width="160" height="220" as="geometry" />
        </mxCell>
        <mxCell id="7C8xcJrHrY4QOSxnhiZb-2" value="userId" style="text;strokeColor=none;fillColor=none;align=left;verticalAlign=top;spacingLeft=4;spacingRight=4;overflow=hidden;rotatable=0;points=[[0,0.5],[1,0.5]];portConstraint=eastwest;whiteSpace=wrap;html=1;" parent="7C8xcJrHrY4QOSxnhiZb-1" vertex="1">
          <mxGeometry y="26" width="160" height="24" as="geometry" />
        </mxCell>
        <mxCell id="7C8xcJrHrY4QOSxnhiZb-5" value="password" style="text;html=1;align=left;verticalAlign=middle;resizable=0;points=[];autosize=1;strokeColor=none;fillColor=none;" parent="7C8xcJrHrY4QOSxnhiZb-1" vertex="1">
          <mxGeometry y="50" width="160" height="30" as="geometry" />
        </mxCell>
        <mxCell id="7C8xcJrHrY4QOSxnhiZb-6" value="email" style="text;html=1;align=left;verticalAlign=middle;resizable=0;points=[];autosize=1;strokeColor=none;fillColor=none;" parent="7C8xcJrHrY4QOSxnhiZb-1" vertex="1">
          <mxGeometry y="80" width="160" height="30" as="geometry" />
        </mxCell>
        <mxCell id="7C8xcJrHrY4QOSxnhiZb-3" value="" style="line;strokeWidth=1;fillColor=none;align=left;verticalAlign=middle;spacingTop=-1;spacingLeft=3;spacingRight=3;rotatable=0;labelPosition=right;points=[];portConstraint=eastwest;strokeColor=inherit;" parent="7C8xcJrHrY4QOSxnhiZb-1" vertex="1">
          <mxGeometry y="110" width="160" height="20" as="geometry" />
        </mxCell>
        <mxCell id="7C8xcJrHrY4QOSxnhiZb-8" value="register()" style="text;html=1;align=left;verticalAlign=middle;resizable=0;points=[];autosize=1;strokeColor=none;fillColor=none;" parent="7C8xcJrHrY4QOSxnhiZb-1" vertex="1">
          <mxGeometry y="130" width="160" height="30" as="geometry" />
        </mxCell>
        <mxCell id="7C8xcJrHrY4QOSxnhiZb-10" value="login()" style="text;html=1;align=left;verticalAlign=middle;resizable=0;points=[];autosize=1;strokeColor=none;fillColor=none;" parent="7C8xcJrHrY4QOSxnhiZb-1" vertex="1">
          <mxGeometry y="160" width="160" height="30" as="geometry" />
        </mxCell>
        <mxCell id="7C8xcJrHrY4QOSxnhiZb-11" value="editProfile()" style="text;html=1;align=left;verticalAlign=middle;resizable=0;points=[];autosize=1;strokeColor=none;fillColor=none;" parent="7C8xcJrHrY4QOSxnhiZb-1" vertex="1">
          <mxGeometry y="190" width="160" height="30" as="geometry" />
        </mxCell>
        <mxCell id="7C8xcJrHrY4QOSxnhiZb-12" value="Game" style="swimlane;fontStyle=1;align=center;verticalAlign=top;childLayout=stackLayout;horizontal=1;startSize=26;horizontalStack=0;resizeParent=1;resizeParentMax=0;resizeLast=0;collapsible=1;marginBottom=0;whiteSpace=wrap;html=1;" parent="1" vertex="1">
          <mxGeometry x="450" y="180" width="160" height="210" as="geometry" />
        </mxCell>
        <mxCell id="7C8xcJrHrY4QOSxnhiZb-13" value="gameId" style="text;strokeColor=none;fillColor=none;align=left;verticalAlign=top;spacingLeft=4;spacingRight=4;overflow=hidden;rotatable=0;points=[[0,0.5],[1,0.5]];portConstraint=eastwest;whiteSpace=wrap;html=1;" parent="7C8xcJrHrY4QOSxnhiZb-12" vertex="1">
          <mxGeometry y="26" width="160" height="24" as="geometry" />
        </mxCell>
        <mxCell id="7C8xcJrHrY4QOSxnhiZb-14" value="title" style="text;html=1;align=left;verticalAlign=middle;resizable=0;points=[];autosize=1;strokeColor=none;fillColor=none;" parent="7C8xcJrHrY4QOSxnhiZb-12" vertex="1">
          <mxGeometry y="50" width="160" height="30" as="geometry" />
        </mxCell>
        <mxCell id="7C8xcJrHrY4QOSxnhiZb-15" value="description" style="text;html=1;align=left;verticalAlign=middle;resizable=0;points=[];autosize=1;strokeColor=none;fillColor=none;" parent="7C8xcJrHrY4QOSxnhiZb-12" vertex="1">
          <mxGeometry y="80" width="160" height="30" as="geometry" />
        </mxCell>
        <mxCell id="7C8xcJrHrY4QOSxnhiZb-63" value="multiplayer() : Bool" style="text;html=1;align=left;verticalAlign=middle;resizable=0;points=[];autosize=1;strokeColor=none;fillColor=none;" parent="7C8xcJrHrY4QOSxnhiZb-12" vertex="1">
          <mxGeometry y="110" width="160" height="30" as="geometry" />
        </mxCell>
        <mxCell id="7C8xcJrHrY4QOSxnhiZb-16" value="" style="line;strokeWidth=1;fillColor=none;align=left;verticalAlign=middle;spacingTop=-1;spacingLeft=3;spacingRight=3;rotatable=0;labelPosition=right;points=[];portConstraint=eastwest;strokeColor=inherit;" parent="7C8xcJrHrY4QOSxnhiZb-12" vertex="1">
          <mxGeometry y="140" width="160" height="10" as="geometry" />
        </mxCell>
        <mxCell id="7C8xcJrHrY4QOSxnhiZb-18" value="play()" style="text;html=1;align=left;verticalAlign=middle;resizable=0;points=[];autosize=1;strokeColor=none;fillColor=none;" parent="7C8xcJrHrY4QOSxnhiZb-12" vertex="1">
          <mxGeometry y="150" width="160" height="30" as="geometry" />
        </mxCell>
        <mxCell id="7C8xcJrHrY4QOSxnhiZb-21" value="changeDiffuculty()" style="text;html=1;align=left;verticalAlign=middle;resizable=0;points=[];autosize=1;strokeColor=none;fillColor=none;" parent="7C8xcJrHrY4QOSxnhiZb-12" vertex="1">
          <mxGeometry y="180" width="160" height="30" as="geometry" />
        </mxCell>
        <mxCell id="7C8xcJrHrY4QOSxnhiZb-22" value="" style="endArrow=open;html=1;rounded=0;endFill=0;" parent="1" source="7C8xcJrHrY4QOSxnhiZb-1" target="7C8xcJrHrY4QOSxnhiZb-12" edge="1">
          <mxGeometry width="50" height="50" relative="1" as="geometry">
            <mxPoint x="420" y="380" as="sourcePoint" />
            <mxPoint x="470" y="330" as="targetPoint" />
          </mxGeometry>
        </mxCell>
        <mxCell id="7C8xcJrHrY4QOSxnhiZb-23" value="*" style="text;html=1;align=center;verticalAlign=middle;resizable=0;points=[];autosize=1;strokeColor=none;fillColor=none;" parent="1" vertex="1">
          <mxGeometry x="330" y="260" width="30" height="30" as="geometry" />
        </mxCell>
        <mxCell id="7C8xcJrHrY4QOSxnhiZb-24" value="LeaderBoard" style="swimlane;fontStyle=1;align=center;verticalAlign=top;childLayout=stackLayout;horizontal=1;startSize=26;horizontalStack=0;resizeParent=1;resizeParentMax=0;resizeLast=0;collapsible=1;marginBottom=0;whiteSpace=wrap;html=1;" parent="1" vertex="1">
          <mxGeometry x="455" y="450" width="160" height="130" as="geometry" />
        </mxCell>
        <mxCell id="7C8xcJrHrY4QOSxnhiZb-25" value="gameId" style="text;strokeColor=none;fillColor=none;align=left;verticalAlign=top;spacingLeft=4;spacingRight=4;overflow=hidden;rotatable=0;points=[[0,0.5],[1,0.5]];portConstraint=eastwest;whiteSpace=wrap;html=1;" parent="7C8xcJrHrY4QOSxnhiZb-24" vertex="1">
          <mxGeometry y="26" width="160" height="24" as="geometry" />
        </mxCell>
        <mxCell id="7C8xcJrHrY4QOSxnhiZb-26" value="title" style="text;html=1;align=left;verticalAlign=middle;resizable=0;points=[];autosize=1;strokeColor=none;fillColor=none;" parent="7C8xcJrHrY4QOSxnhiZb-24" vertex="1">
          <mxGeometry y="50" width="160" height="30" as="geometry" />
        </mxCell>
        <mxCell id="7C8xcJrHrY4QOSxnhiZb-27" value="description" style="text;html=1;align=left;verticalAlign=middle;resizable=0;points=[];autosize=1;strokeColor=none;fillColor=none;" parent="7C8xcJrHrY4QOSxnhiZb-24" vertex="1">
          <mxGeometry y="80" width="160" height="30" as="geometry" />
        </mxCell>
        <mxCell id="7C8xcJrHrY4QOSxnhiZb-28" value="" style="line;strokeWidth=1;fillColor=none;align=left;verticalAlign=middle;spacingTop=-1;spacingLeft=3;spacingRight=3;rotatable=0;labelPosition=right;points=[];portConstraint=eastwest;strokeColor=inherit;" parent="7C8xcJrHrY4QOSxnhiZb-24" vertex="1">
          <mxGeometry y="110" width="160" height="20" as="geometry" />
        </mxCell>
        <mxCell id="7C8xcJrHrY4QOSxnhiZb-33" value="" style="endArrow=none;html=1;rounded=0;endFill=0;" parent="1" source="7C8xcJrHrY4QOSxnhiZb-34" target="7C8xcJrHrY4QOSxnhiZb-24" edge="1">
          <mxGeometry width="50" height="50" relative="1" as="geometry">
            <mxPoint x="380" y="510" as="sourcePoint" />
            <mxPoint x="430" y="460" as="targetPoint" />
          </mxGeometry>
        </mxCell>
        <mxCell id="7C8xcJrHrY4QOSxnhiZb-34" value="" style="rhombus;whiteSpace=wrap;html=1;fillColor=#000000;" parent="1" vertex="1">
          <mxGeometry x="520" y="390" width="30" height="30" as="geometry" />
        </mxCell>
        <mxCell id="7C8xcJrHrY4QOSxnhiZb-37" value="" style="endArrow=open;html=1;rounded=0;endFill=0;" parent="1" source="7C8xcJrHrY4QOSxnhiZb-1" target="7C8xcJrHrY4QOSxnhiZb-24" edge="1">
          <mxGeometry width="50" height="50" relative="1" as="geometry">
            <mxPoint x="380" y="510" as="sourcePoint" />
            <mxPoint x="430" y="460" as="targetPoint" />
            <Array as="points">
              <mxPoint x="260" y="520" />
            </Array>
          </mxGeometry>
        </mxCell>
        <mxCell id="7C8xcJrHrY4QOSxnhiZb-38" value="viewLeaderboard()" style="edgeLabel;html=1;align=center;verticalAlign=middle;resizable=0;points=[];" parent="7C8xcJrHrY4QOSxnhiZb-37" vertex="1" connectable="0">
          <mxGeometry x="0.4667" y="3" relative="1" as="geometry">
            <mxPoint as="offset" />
          </mxGeometry>
        </mxCell>
        <mxCell id="7C8xcJrHrY4QOSxnhiZb-39" value="Learning Path" style="swimlane;fontStyle=1;align=center;verticalAlign=top;childLayout=stackLayout;horizontal=1;startSize=26;horizontalStack=0;resizeParent=1;resizeParentMax=0;resizeLast=0;collapsible=1;marginBottom=0;whiteSpace=wrap;html=1;" parent="1" vertex="1">
          <mxGeometry x="180" y="-80" width="160" height="130" as="geometry" />
        </mxCell>
        <mxCell id="7C8xcJrHrY4QOSxnhiZb-40" value="title" style="text;strokeColor=none;fillColor=none;align=left;verticalAlign=top;spacingLeft=4;spacingRight=4;overflow=hidden;rotatable=0;points=[[0,0.5],[1,0.5]];portConstraint=eastwest;whiteSpace=wrap;html=1;" parent="7C8xcJrHrY4QOSxnhiZb-39" vertex="1">
          <mxGeometry y="26" width="160" height="24" as="geometry" />
        </mxCell>
        <mxCell id="7C8xcJrHrY4QOSxnhiZb-41" value="description" style="text;html=1;align=left;verticalAlign=middle;resizable=0;points=[];autosize=1;strokeColor=none;fillColor=none;" parent="7C8xcJrHrY4QOSxnhiZb-39" vertex="1">
          <mxGeometry y="50" width="160" height="30" as="geometry" />
        </mxCell>
        <mxCell id="7C8xcJrHrY4QOSxnhiZb-43" value="" style="line;strokeWidth=1;fillColor=none;align=left;verticalAlign=middle;spacingTop=-1;spacingLeft=3;spacingRight=3;rotatable=0;labelPosition=right;points=[];portConstraint=eastwest;strokeColor=inherit;" parent="7C8xcJrHrY4QOSxnhiZb-39" vertex="1">
          <mxGeometry y="80" width="160" height="20" as="geometry" />
        </mxCell>
        <mxCell id="7C8xcJrHrY4QOSxnhiZb-44" value="createPath()" style="text;html=1;align=left;verticalAlign=middle;resizable=0;points=[];autosize=1;strokeColor=none;fillColor=none;" parent="7C8xcJrHrY4QOSxnhiZb-39" vertex="1">
          <mxGeometry y="100" width="160" height="30" as="geometry" />
        </mxCell>
        <mxCell id="7C8xcJrHrY4QOSxnhiZb-48" value="" style="endArrow=none;html=1;rounded=0;endFill=0;" parent="1" source="7C8xcJrHrY4QOSxnhiZb-1" target="7C8xcJrHrY4QOSxnhiZb-39" edge="1">
          <mxGeometry width="50" height="50" relative="1" as="geometry">
            <mxPoint x="420" y="180" as="sourcePoint" />
            <mxPoint x="210" y="-40" as="targetPoint" />
          </mxGeometry>
        </mxCell>
        <mxCell id="7C8xcJrHrY4QOSxnhiZb-51" value="" style="endArrow=open;html=1;rounded=0;endFill=0;" parent="1" source="7C8xcJrHrY4QOSxnhiZb-39" target="7C8xcJrHrY4QOSxnhiZb-12" edge="1">
          <mxGeometry width="50" height="50" relative="1" as="geometry">
            <mxPoint x="420" y="280" as="sourcePoint" />
            <mxPoint x="470" y="230" as="targetPoint" />
            <Array as="points">
              <mxPoint x="530" y="-15" />
            </Array>
          </mxGeometry>
        </mxCell>
        <mxCell id="7C8xcJrHrY4QOSxnhiZb-52" value="createGame()" style="edgeLabel;html=1;align=center;verticalAlign=middle;resizable=0;points=[];" parent="7C8xcJrHrY4QOSxnhiZb-51" vertex="1" connectable="0">
          <mxGeometry x="0.4923" relative="1" as="geometry">
            <mxPoint y="1" as="offset" />
          </mxGeometry>
        </mxCell>
        <mxCell id="7C8xcJrHrY4QOSxnhiZb-53" value="FeedBack" style="swimlane;fontStyle=1;align=center;verticalAlign=top;childLayout=stackLayout;horizontal=1;startSize=26;horizontalStack=0;resizeParent=1;resizeParentMax=0;resizeLast=0;collapsible=1;marginBottom=0;whiteSpace=wrap;html=1;" parent="1" vertex="1">
          <mxGeometry x="630" y="-300" width="160" height="180" as="geometry" />
        </mxCell>
        <mxCell id="7C8xcJrHrY4QOSxnhiZb-54" value="gameId" style="text;strokeColor=none;fillColor=none;align=left;verticalAlign=top;spacingLeft=4;spacingRight=4;overflow=hidden;rotatable=0;points=[[0,0.5],[1,0.5]];portConstraint=eastwest;whiteSpace=wrap;html=1;" parent="7C8xcJrHrY4QOSxnhiZb-53" vertex="1">
          <mxGeometry y="26" width="160" height="24" as="geometry" />
        </mxCell>
        <mxCell id="7C8xcJrHrY4QOSxnhiZb-55" value="title" style="text;html=1;align=left;verticalAlign=middle;resizable=0;points=[];autosize=1;strokeColor=none;fillColor=none;" parent="7C8xcJrHrY4QOSxnhiZb-53" vertex="1">
          <mxGeometry y="50" width="160" height="30" as="geometry" />
        </mxCell>
        <mxCell id="7C8xcJrHrY4QOSxnhiZb-56" value="description" style="text;html=1;align=left;verticalAlign=middle;resizable=0;points=[];autosize=1;strokeColor=none;fillColor=none;" parent="7C8xcJrHrY4QOSxnhiZb-53" vertex="1">
          <mxGeometry y="80" width="160" height="30" as="geometry" />
        </mxCell>
        <mxCell id="7C8xcJrHrY4QOSxnhiZb-61" value="feedback" style="text;html=1;align=left;verticalAlign=middle;resizable=0;points=[];autosize=1;strokeColor=none;fillColor=none;" parent="7C8xcJrHrY4QOSxnhiZb-53" vertex="1">
          <mxGeometry y="110" width="160" height="30" as="geometry" />
        </mxCell>
        <mxCell id="7C8xcJrHrY4QOSxnhiZb-62" value="score" style="text;html=1;align=left;verticalAlign=middle;resizable=0;points=[];autosize=1;strokeColor=none;fillColor=none;" parent="7C8xcJrHrY4QOSxnhiZb-53" vertex="1">
          <mxGeometry y="140" width="160" height="30" as="geometry" />
        </mxCell>
        <mxCell id="7C8xcJrHrY4QOSxnhiZb-57" value="" style="line;strokeWidth=1;fillColor=none;align=left;verticalAlign=middle;spacingTop=-1;spacingLeft=3;spacingRight=3;rotatable=0;labelPosition=right;points=[];portConstraint=eastwest;strokeColor=inherit;" parent="7C8xcJrHrY4QOSxnhiZb-53" vertex="1">
          <mxGeometry y="170" width="160" height="10" as="geometry" />
        </mxCell>
        <mxCell id="7C8xcJrHrY4QOSxnhiZb-64" value="" style="endArrow=open;html=1;rounded=0;endFill=0;" parent="1" source="7C8xcJrHrY4QOSxnhiZb-12" target="7C8xcJrHrY4QOSxnhiZb-53" edge="1">
          <mxGeometry width="50" height="50" relative="1" as="geometry">
            <mxPoint x="730" y="260" as="sourcePoint" />
            <mxPoint x="730" y="200" as="targetPoint" />
            <Array as="points">
              <mxPoint x="710" y="285" />
            </Array>
          </mxGeometry>
        </mxCell>
        <mxCell id="7C8xcJrHrY4QOSxnhiZb-65" value="" style="endArrow=open;html=1;rounded=0;endFill=0;" parent="1" source="7C8xcJrHrY4QOSxnhiZb-53" target="7C8xcJrHrY4QOSxnhiZb-1" edge="1">
          <mxGeometry width="50" height="50" relative="1" as="geometry">
            <mxPoint x="560" y="-100" as="sourcePoint" />
            <mxPoint x="60" y="330" as="targetPoint" />
            <Array as="points">
              <mxPoint x="60" y="-210" />
              <mxPoint x="60" y="285" />
            </Array>
          </mxGeometry>
        </mxCell>
        <mxCell id="7C8xcJrHrY4QOSxnhiZb-66" value="provideFeedback()" style="edgeLabel;html=1;align=center;verticalAlign=middle;resizable=0;points=[];" parent="7C8xcJrHrY4QOSxnhiZb-65" vertex="1" connectable="0">
          <mxGeometry x="-0.5749" y="3" relative="1" as="geometry">
            <mxPoint as="offset" />
          </mxGeometry>
        </mxCell>
        <mxCell id="7C8xcJrHrY4QOSxnhiZb-68" value="Debugger" style="swimlane;fontStyle=1;align=center;verticalAlign=top;childLayout=stackLayout;horizontal=1;startSize=26;horizontalStack=0;resizeParent=1;resizeParentMax=0;resizeLast=0;collapsible=1;marginBottom=0;whiteSpace=wrap;html=1;" parent="1" vertex="1">
          <mxGeometry x="840" y="290" width="160" height="120" as="geometry" />
        </mxCell>
        <mxCell id="7C8xcJrHrY4QOSxnhiZb-69" value="gameID" style="text;strokeColor=none;fillColor=none;align=left;verticalAlign=top;spacingLeft=4;spacingRight=4;overflow=hidden;rotatable=0;points=[[0,0.5],[1,0.5]];portConstraint=eastwest;whiteSpace=wrap;html=1;" parent="7C8xcJrHrY4QOSxnhiZb-68" vertex="1">
          <mxGeometry y="26" width="160" height="24" as="geometry" />
        </mxCell>
        <mxCell id="7C8xcJrHrY4QOSxnhiZb-70" value="title" style="text;html=1;align=left;verticalAlign=middle;resizable=0;points=[];autosize=1;strokeColor=none;fillColor=none;" parent="7C8xcJrHrY4QOSxnhiZb-68" vertex="1">
          <mxGeometry y="50" width="160" height="30" as="geometry" />
        </mxCell>
        <mxCell id="7C8xcJrHrY4QOSxnhiZb-73" value="" style="line;strokeWidth=1;fillColor=none;align=left;verticalAlign=middle;spacingTop=-1;spacingLeft=3;spacingRight=3;rotatable=0;labelPosition=right;points=[];portConstraint=eastwest;strokeColor=inherit;" parent="7C8xcJrHrY4QOSxnhiZb-68" vertex="1">
          <mxGeometry y="80" width="160" height="10" as="geometry" />
        </mxCell>
        <mxCell id="7C8xcJrHrY4QOSxnhiZb-74" value="useDebugger()" style="text;html=1;align=left;verticalAlign=middle;resizable=0;points=[];autosize=1;strokeColor=none;fillColor=none;" parent="7C8xcJrHrY4QOSxnhiZb-68" vertex="1">
          <mxGeometry y="90" width="160" height="30" as="geometry" />
        </mxCell>
        <mxCell id="7C8xcJrHrY4QOSxnhiZb-77" value="" style="endArrow=none;html=1;rounded=0;" parent="1" source="7C8xcJrHrY4QOSxnhiZb-68" target="7C8xcJrHrY4QOSxnhiZb-76" edge="1">
          <mxGeometry width="50" height="50" relative="1" as="geometry">
            <mxPoint x="850" y="413" as="sourcePoint" />
            <mxPoint x="610" y="317" as="targetPoint" />
          </mxGeometry>
        </mxCell>
        <mxCell id="7C8xcJrHrY4QOSxnhiZb-76" value="" style="rhombus;whiteSpace=wrap;html=1;fillColor=#000000;" parent="1" vertex="1">
          <mxGeometry x="610" y="335" width="30" height="30" as="geometry" />
        </mxCell>
        <mxCell id="7C8xcJrHrY4QOSxnhiZb-78" value="Multiplayer Session" style="swimlane;fontStyle=1;align=center;verticalAlign=top;childLayout=stackLayout;horizontal=1;startSize=26;horizontalStack=0;resizeParent=1;resizeParentMax=0;resizeLast=0;collapsible=1;marginBottom=0;whiteSpace=wrap;html=1;" parent="1" vertex="1">
          <mxGeometry x="760" y="450" width="160" height="120" as="geometry" />
        </mxCell>
        <mxCell id="7C8xcJrHrY4QOSxnhiZb-79" value="gameID" style="text;strokeColor=none;fillColor=none;align=left;verticalAlign=top;spacingLeft=4;spacingRight=4;overflow=hidden;rotatable=0;points=[[0,0.5],[1,0.5]];portConstraint=eastwest;whiteSpace=wrap;html=1;" parent="7C8xcJrHrY4QOSxnhiZb-78" vertex="1">
          <mxGeometry y="26" width="160" height="24" as="geometry" />
        </mxCell>
        <mxCell id="7C8xcJrHrY4QOSxnhiZb-80" value="sessionID" style="text;html=1;align=left;verticalAlign=middle;resizable=0;points=[];autosize=1;strokeColor=none;fillColor=none;" parent="7C8xcJrHrY4QOSxnhiZb-78" vertex="1">
          <mxGeometry y="50" width="160" height="30" as="geometry" />
        </mxCell>
        <mxCell id="7C8xcJrHrY4QOSxnhiZb-82" value="playerIDs" style="text;html=1;align=left;verticalAlign=middle;resizable=0;points=[];autosize=1;strokeColor=none;fillColor=none;" parent="7C8xcJrHrY4QOSxnhiZb-78" vertex="1">
          <mxGeometry y="80" width="160" height="30" as="geometry" />
        </mxCell>
        <mxCell id="7C8xcJrHrY4QOSxnhiZb-83" value="" style="line;strokeWidth=1;fillColor=none;align=left;verticalAlign=middle;spacingTop=-1;spacingLeft=3;spacingRight=3;rotatable=0;labelPosition=right;points=[];portConstraint=eastwest;strokeColor=inherit;" parent="7C8xcJrHrY4QOSxnhiZb-78" vertex="1">
          <mxGeometry y="110" width="160" height="10" as="geometry" />
        </mxCell>
        <mxCell id="7C8xcJrHrY4QOSxnhiZb-88" value="" style="endArrow=none;html=1;rounded=0;endFill=0;" parent="1" source="7C8xcJrHrY4QOSxnhiZb-78" target="7C8xcJrHrY4QOSxnhiZb-90" edge="1">
          <mxGeometry width="50" height="50" relative="1" as="geometry">
            <mxPoint x="730" y="550" as="sourcePoint" />
            <mxPoint x="720" y="520" as="targetPoint" />
            <Array as="points">
              <mxPoint x="660" y="510" />
            </Array>
          </mxGeometry>
        </mxCell>
        <mxCell id="7C8xcJrHrY4QOSxnhiZb-90" value="" style="rhombus;whiteSpace=wrap;html=1;fillColor=#000000;" parent="1" vertex="1">
          <mxGeometry x="610" y="370" width="30" height="30" as="geometry" />
        </mxCell>
        <mxCell id="7C8xcJrHrY4QOSxnhiZb-93" value="*" style="text;html=1;align=center;verticalAlign=middle;resizable=0;points=[];autosize=1;strokeColor=none;fillColor=none;" parent="1" vertex="1">
          <mxGeometry x="600" y="390" width="30" height="30" as="geometry" />
        </mxCell>
        <mxCell id="7C8xcJrHrY4QOSxnhiZb-94" value="" style="endArrow=open;html=1;rounded=0;exitX=0.009;exitY=0.98;exitDx=0;exitDy=0;exitPerimeter=0;endFill=0;" parent="1" source="7C8xcJrHrY4QOSxnhiZb-11" target="7C8xcJrHrY4QOSxnhiZb-78" edge="1">
          <mxGeometry width="50" height="50" relative="1" as="geometry">
            <mxPoint x="490" y="430" as="sourcePoint" />
            <mxPoint x="870" y="690" as="targetPoint" />
            <Array as="points">
              <mxPoint x="181" y="690" />
              <mxPoint x="840" y="690" />
            </Array>
          </mxGeometry>
        </mxCell>
        <mxCell id="7C8xcJrHrY4QOSxnhiZb-95" value="createSession()" style="edgeLabel;html=1;align=center;verticalAlign=middle;resizable=0;points=[];" parent="7C8xcJrHrY4QOSxnhiZb-94" vertex="1" connectable="0">
          <mxGeometry x="0.5264" y="4" relative="1" as="geometry">
            <mxPoint as="offset" />
          </mxGeometry>
        </mxCell>
        <mxCell id="mvbsk_D5tr1hFuZK7gOH-7" value="*" style="text;html=1;align=center;verticalAlign=middle;resizable=0;points=[];autosize=1;strokeColor=none;fillColor=none;" parent="1" vertex="1">
          <mxGeometry x="175" y="388" width="30" height="30" as="geometry" />
        </mxCell>
        <mxCell id="mvbsk_D5tr1hFuZK7gOH-8" value="*" style="text;html=1;align=center;verticalAlign=middle;resizable=0;points=[];autosize=1;strokeColor=none;fillColor=none;" parent="1" vertex="1">
          <mxGeometry x="505" y="158" width="30" height="30" as="geometry" />
        </mxCell>
        <mxCell id="mvbsk_D5tr1hFuZK7gOH-9" value="*" style="text;html=1;align=center;verticalAlign=middle;resizable=0;points=[];autosize=1;strokeColor=none;fillColor=none;" parent="1" vertex="1">
          <mxGeometry x="425" y="495" width="30" height="30" as="geometry" />
        </mxCell>
        <mxCell id="mvbsk_D5tr1hFuZK7gOH-10" value="*" style="text;html=1;align=center;verticalAlign=middle;resizable=0;points=[];autosize=1;strokeColor=none;fillColor=none;" parent="1" vertex="1">
          <mxGeometry x="730" y="490" width="30" height="30" as="geometry" />
        </mxCell>
      </root>
    </mxGraphModel>
  </diagram>
</mxfile>
